<svg width="674" height="110" viewBox="0 0 674 110" fill="none" xmlns="http://www.w3.org/2000/svg">
<path fill-rule="evenodd" clip-rule="evenodd" d="M55 110C85.3758 110 110 85.3753 110 55C110 24.6247 85.3758 0 55 0C24.6242 0 0 24.6247 0 55C0 85.3753 24.6242 110 55 110ZM61.6736 42.8703L54.671 18.3333L47.6682 42.8703L22.9167 36.6667L40.6654 55L22.9167 73.3333L47.6682 67.1297L54.671 91.6667L61.6736 67.1297L86.4252 73.3333L68.6764 55L86.4252 36.6667L61.6736 42.8703Z" fill="#BEFE05"/>
<path d="M159.279 90.44C152.303 90.44 146.191 89 140.943 86.12C135.695 83.24 131.615 79.192 128.703 73.976C125.791 68.728 124.335 62.568 124.335 55.496C124.335 50.344 125.183 45.64 126.879 41.384C128.607 37.096 131.039 33.384 134.175 30.248C137.343 27.08 141.055 24.648 145.311 22.952C149.599 21.224 154.303 20.36 159.423 20.36C164.703 20.36 169.215 21.032 172.959 22.376C176.703 23.688 180.031 25.56 182.943 27.992L176.559 38.216C174.511 36.264 172.111 34.824 169.359 33.896C166.639 32.936 163.615 32.456 160.287 32.456C156.735 32.456 153.551 32.984 150.735 34.04C147.919 35.096 145.519 36.632 143.535 38.648C141.551 40.632 140.031 43.032 138.975 45.848C137.919 48.664 137.391 51.832 137.391 55.352C137.391 60.184 138.335 64.312 140.223 67.736C142.111 71.128 144.799 73.736 148.287 75.56C151.775 77.384 155.919 78.296 160.719 78.296C163.951 78.296 167.103 77.8 170.175 76.808C173.279 75.816 176.207 74.232 178.959 72.056L184.719 82.568C181.519 85.064 177.807 87 173.583 88.376C169.391 89.752 164.623 90.44 159.279 90.44ZM192.23 89V19.88H204.518V51.128L201.974 48.248C204.086 45.4 206.614 43.24 209.558 41.768C212.502 40.296 215.67 39.56 219.062 39.56C223.478 39.56 227.142 40.44 230.054 42.2C232.998 43.96 235.206 46.248 236.678 49.064C238.15 51.88 238.886 54.856 238.886 57.992V89H226.598V61.496C226.598 58.328 225.622 55.752 223.67 53.768C221.75 51.784 219.11 50.792 215.75 50.792C213.51 50.76 211.542 51.224 209.846 52.184C208.15 53.144 206.838 54.52 205.91 56.312C204.982 58.072 204.518 60.136 204.518 62.504V89H192.23ZM264.029 90.44C260.765 90.44 257.869 89.816 255.341 88.568C252.813 87.32 250.829 85.56 249.389 83.288C247.949 80.984 247.229 78.264 247.229 75.128C247.229 72.44 247.901 70.04 249.245 67.928C250.589 65.816 252.653 64.072 255.437 62.696C258.221 61.288 261.773 60.344 266.093 59.864C270.445 59.384 275.597 59.448 281.549 60.056L281.741 68.168C277.837 67.56 274.429 67.288 271.517 67.352C268.605 67.416 266.189 67.752 264.269 68.36C262.381 68.968 260.957 69.8 259.997 70.856C259.069 71.912 258.605 73.144 258.605 74.552C258.605 76.664 259.373 78.296 260.909 79.448C262.445 80.568 264.541 81.128 267.197 81.128C269.469 81.128 271.501 80.712 273.293 79.88C275.117 79.048 276.557 77.88 277.613 76.376C278.669 74.84 279.197 73.032 279.197 70.952V58.808C279.197 56.792 278.765 55.048 277.901 53.576C277.069 52.072 275.789 50.92 274.061 50.12C272.333 49.288 270.109 48.872 267.389 48.872C264.893 48.872 262.413 49.256 259.949 50.024C257.517 50.76 255.229 51.912 253.085 53.48L249.773 44.696C252.813 42.68 256.013 41.24 259.373 40.376C262.733 39.512 265.981 39.08 269.117 39.08C273.597 39.08 277.469 39.784 280.733 41.192C284.029 42.6 286.557 44.76 288.317 47.672C290.109 50.552 291.005 54.216 291.005 58.664V89H280.157V83.528C278.557 85.736 276.349 87.448 273.533 88.664C270.717 89.848 267.549 90.44 264.029 90.44ZM302.672 89V41H314.96V89H302.672ZM308.816 32.936C306.704 32.936 304.88 32.264 303.344 30.92C301.808 29.576 301.04 27.8 301.04 25.592C301.04 23.384 301.808 21.608 303.344 20.264C304.88 18.92 306.704 18.248 308.816 18.248C310.928 18.248 312.752 18.92 314.288 20.264C315.824 21.608 316.592 23.384 316.592 25.592C316.592 27.8 315.824 29.576 314.288 30.92C312.752 32.264 310.928 32.936 308.816 32.936ZM327.189 89V41H339.477V46.76C341.397 44.232 343.637 42.408 346.197 41.288C348.789 40.136 351.493 39.56 354.309 39.56C358.725 39.56 362.373 40.44 365.253 42.2C368.165 43.96 370.325 46.216 371.733 48.968C373.141 51.72 373.845 54.6 373.845 57.608V89H361.557V61.448C361.557 58.184 360.613 55.592 358.725 53.672C356.837 51.752 354.197 50.792 350.805 50.792C348.597 50.792 346.629 51.288 344.901 52.28C343.205 53.24 341.877 54.6 340.917 56.36C339.957 58.12 339.477 60.152 339.477 62.456V89H327.189ZM420.492 90.44C415.212 90.44 410.284 89.624 405.708 87.992C401.164 86.36 397.18 84.024 393.756 80.984C390.332 77.944 387.66 74.28 385.74 69.992C383.82 65.672 382.86 60.84 382.86 55.496C382.86 50.152 383.772 45.32 385.596 41C387.452 36.68 390.044 32.984 393.372 29.912C396.7 26.84 400.588 24.488 405.036 22.856C409.484 21.192 414.316 20.36 419.532 20.36C421.932 20.36 424.396 20.552 426.924 20.936C429.452 21.32 431.964 21.96 434.46 22.856C436.988 23.752 439.404 24.984 441.708 26.552L436.38 36.296C433.98 34.76 431.404 33.624 428.652 32.888C425.9 32.12 423.036 31.736 420.06 31.736C416.316 31.736 412.94 32.28 409.932 33.368C406.924 34.456 404.364 36.04 402.252 38.12C400.14 40.168 398.524 42.664 397.404 45.608C396.284 48.52 395.724 51.816 395.724 55.496C395.724 60.648 396.812 65.016 398.988 68.6C401.196 72.184 404.204 74.904 408.012 76.76C411.852 78.584 416.236 79.496 421.164 79.496C423.436 79.496 425.516 79.288 427.404 78.872C429.292 78.424 430.86 77.928 432.108 77.384V62.6H417.372V52.424H443.196V84.776C441.34 85.928 439.068 86.936 436.38 87.8C433.724 88.664 430.972 89.32 428.124 89.768C425.308 90.216 422.764 90.44 420.492 90.44ZM455.912 89V41H468.2V47.288C469.864 44.472 471.944 42.472 474.44 41.288C476.968 40.104 479.688 39.512 482.6 39.512C483.624 39.512 484.568 39.56 485.432 39.656C486.296 39.752 487.128 39.896 487.928 40.088L486.392 52.76C485.4 52.408 484.36 52.152 483.272 51.992C482.216 51.8 481.16 51.704 480.104 51.704C476.648 51.704 473.8 52.744 471.56 54.824C469.32 56.872 468.2 59.752 468.2 63.464V89H455.912ZM507.836 90.44C504.572 90.44 501.676 89.816 499.148 88.568C496.62 87.32 494.636 85.56 493.196 83.288C491.756 80.984 491.036 78.264 491.036 75.128C491.036 72.44 491.708 70.04 493.052 67.928C494.396 65.816 496.46 64.072 499.244 62.696C502.028 61.288 505.58 60.344 509.9 59.864C514.252 59.384 519.404 59.448 525.356 60.056L525.548 68.168C521.644 67.56 518.236 67.288 515.324 67.352C512.412 67.416 509.996 67.752 508.076 68.36C506.188 68.968 504.764 69.8 503.804 70.856C502.876 71.912 502.412 73.144 502.412 74.552C502.412 76.664 503.18 78.296 504.716 79.448C506.252 80.568 508.348 81.128 511.004 81.128C513.276 81.128 515.308 80.712 517.1 79.88C518.924 79.048 520.364 77.88 521.42 76.376C522.476 74.84 523.004 73.032 523.004 70.952V58.808C523.004 56.792 522.572 55.048 521.708 53.576C520.876 52.072 519.596 50.92 517.868 50.12C516.14 49.288 513.916 48.872 511.196 48.872C508.7 48.872 506.22 49.256 503.756 50.024C501.324 50.76 499.036 51.912 496.892 53.48L493.58 44.696C496.62 42.68 499.82 41.24 503.18 40.376C506.54 39.512 509.788 39.08 512.924 39.08C517.404 39.08 521.276 39.784 524.54 41.192C527.836 42.6 530.364 44.76 532.124 47.672C533.916 50.552 534.812 54.216 534.812 58.664V89H523.964V83.528C522.364 85.736 520.156 87.448 517.34 88.664C514.524 89.848 511.356 90.44 507.836 90.44ZM546.478 89V41H558.766V47.384C560.014 45.592 561.454 44.12 563.086 42.968C564.718 41.816 566.462 40.968 568.318 40.424C570.174 39.848 572.046 39.56 573.934 39.56C577.71 39.56 580.894 40.392 583.486 42.056C586.078 43.72 587.886 45.896 588.91 48.584C591.118 45.256 593.806 42.92 596.974 41.576C600.142 40.232 603.39 39.56 606.718 39.56C611.23 39.56 614.814 40.44 617.47 42.2C620.126 43.96 622.03 46.216 623.182 48.968C624.334 51.72 624.91 54.6 624.91 57.608V89H612.622V61.16C612.622 58.056 611.774 55.56 610.078 53.672C608.414 51.752 605.966 50.792 602.734 50.792C600.654 50.792 598.782 51.24 597.118 52.136C595.486 53.032 594.19 54.28 593.23 55.88C592.302 57.448 591.838 59.24 591.838 61.256V89H579.55V61.16C579.55 58.056 578.702 55.56 577.006 53.672C575.342 51.752 572.894 50.792 569.662 50.792C567.582 50.792 565.71 51.24 564.046 52.136C562.414 53.032 561.118 54.28 560.158 55.88C559.23 57.448 558.766 59.24 558.766 61.256V89H546.478ZM653.514 90.392C649.386 90.392 645.546 89.832 641.994 88.712C638.474 87.592 635.482 86.056 633.018 84.104L637.29 75.368C639.658 77.064 642.266 78.408 645.114 79.4C647.962 80.392 650.746 80.888 653.466 80.888C656.346 80.888 658.586 80.408 660.186 79.448C661.786 78.488 662.586 77.144 662.586 75.416C662.586 73.784 661.882 72.584 660.474 71.816C659.066 71.048 656.41 70.248 652.506 69.416C646.298 68.2 641.786 66.408 638.97 64.04C636.154 61.64 634.746 58.344 634.746 54.152C634.746 51.176 635.562 48.552 637.194 46.28C638.858 44.008 641.13 42.248 644.01 41C646.922 39.72 650.266 39.08 654.042 39.08C657.722 39.08 661.194 39.592 664.458 40.616C667.754 41.64 670.586 43.08 672.954 44.936L668.874 53.72C667.626 52.664 666.202 51.752 664.602 50.984C663.002 50.216 661.306 49.624 659.514 49.208C657.754 48.792 656.01 48.584 654.282 48.584C651.754 48.584 649.706 49.032 648.138 49.928C646.602 50.824 645.834 52.088 645.834 53.72C645.834 55.352 646.554 56.568 647.994 57.368C649.434 58.136 652.042 58.952 655.818 59.816C662.218 61.192 666.794 63.016 669.546 65.288C672.298 67.56 673.674 70.744 673.674 74.84C673.674 77.976 672.826 80.712 671.13 83.048C669.434 85.352 667.066 87.16 664.026 88.472C661.018 89.752 657.514 90.392 653.514 90.392Z" fill="#F1FFC7"/>
</svg>
