<svg width="521" height="110" viewBox="0 0 521 110" fill="none" xmlns="http://www.w3.org/2000/svg">
<path fill-rule="evenodd" clip-rule="evenodd" d="M55 110C85.3758 110 110 85.3753 110 55C110 24.6247 85.3758 0 55 0C24.6242 0 0 24.6247 0 55C0 85.3753 24.6242 110 55 110ZM61.6736 42.8703L54.671 18.3333L47.6682 42.8703L22.9167 36.6667L40.6654 55L22.9167 73.3333L47.6682 67.1297L54.671 91.6667L61.6736 67.1297L86.4252 73.3333L68.6764 55L86.4252 36.6667L61.6736 42.8703Z" fill="#BEFE05"/>
<path d="M128.832 89V21.8H173.52V32.744H141.312V49.016H168.864V59.24H141.312V77.96H173.856V89H128.832ZM196.763 89L179.147 41H192.491L204.731 78.44H203.099L215.099 41H228.107L210.923 89H196.763ZM234.413 89V41H246.701V89H234.413ZM240.557 32.936C238.445 32.936 236.621 32.264 235.085 30.92C233.549 29.576 232.781 27.8 232.781 25.592C232.781 23.384 233.549 21.608 235.085 20.264C236.621 18.92 238.445 18.248 240.557 18.248C242.669 18.248 244.493 18.92 246.029 20.264C247.565 21.608 248.333 23.384 248.333 25.592C248.333 27.8 247.565 29.576 246.029 30.92C244.493 32.264 242.669 32.936 240.557 32.936ZM279.426 90.44C274.498 90.44 270.594 89.032 267.714 86.216C264.834 83.4 263.394 79.144 263.394 73.448V27.08H275.682V41H288.306V50.984H275.682V71C275.682 74.072 276.29 76.248 277.506 77.528C278.722 78.776 280.402 79.4 282.546 79.4C283.634 79.4 284.658 79.272 285.618 79.016C286.61 78.76 287.522 78.424 288.354 78.008L290.274 87.8C288.866 88.536 287.218 89.16 285.33 89.672C283.442 90.184 281.474 90.44 279.426 90.44ZM253.266 50.984V41H264.786V50.984H253.266ZM320.811 90.44C315.595 90.44 311.019 89.384 307.083 87.272C303.147 85.128 300.075 82.152 297.867 78.344C295.691 74.536 294.603 70.104 294.603 65.048C294.603 61.336 295.227 57.928 296.475 54.824C297.755 51.72 299.547 49.032 301.851 46.76C304.187 44.456 306.907 42.68 310.011 41.432C313.147 40.184 316.571 39.56 320.283 39.56C324.315 39.56 327.915 40.28 331.083 41.72C334.251 43.128 336.875 45.128 338.955 47.72C341.067 50.28 342.539 53.288 343.371 56.744C344.235 60.168 344.347 63.912 343.707 67.976H306.171C306.139 70.504 306.731 72.712 307.947 74.6C309.195 76.488 310.955 77.976 313.227 79.064C315.531 80.12 318.235 80.648 321.339 80.648C324.091 80.648 326.731 80.248 329.259 79.448C331.787 78.648 334.139 77.464 336.315 75.896L340.635 84.488C339.131 85.704 337.259 86.76 335.019 87.656C332.779 88.552 330.411 89.24 327.915 89.72C325.451 90.2 323.083 90.44 320.811 90.44ZM306.891 59.24H331.803C331.707 56.008 330.635 53.48 328.587 51.656C326.539 49.8 323.675 48.872 319.995 48.872C316.347 48.872 313.339 49.8 310.971 51.656C308.603 53.48 307.243 56.008 306.891 59.24ZM352.309 89V41H364.597V47.288C366.261 44.472 368.341 42.472 370.837 41.288C373.365 40.104 376.085 39.512 378.997 39.512C380.021 39.512 380.965 39.56 381.829 39.656C382.693 39.752 383.525 39.896 384.325 40.088L382.789 52.76C381.797 52.408 380.757 52.152 379.669 51.992C378.613 51.8 377.557 51.704 376.501 51.704C373.045 51.704 370.197 52.744 367.957 54.824C365.717 56.872 364.597 59.752 364.597 63.464V89H352.309ZM390.889 89V41H403.177V46.76C405.097 44.232 407.337 42.408 409.897 41.288C412.489 40.136 415.193 39.56 418.009 39.56C422.425 39.56 426.073 40.44 428.953 42.2C431.865 43.96 434.025 46.216 435.433 48.968C436.841 51.72 437.545 54.6 437.545 57.608V89H425.257V61.448C425.257 58.184 424.313 55.592 422.425 53.672C420.537 51.752 417.897 50.792 414.505 50.792C412.297 50.792 410.329 51.288 408.601 52.28C406.905 53.24 405.577 54.6 404.617 56.36C403.657 58.12 403.177 60.152 403.177 62.456V89H390.889ZM462.688 90.44C459.424 90.44 456.528 89.816 454 88.568C451.472 87.32 449.488 85.56 448.048 83.288C446.608 80.984 445.888 78.264 445.888 75.128C445.888 72.44 446.56 70.04 447.904 67.928C449.248 65.816 451.312 64.072 454.096 62.696C456.88 61.288 460.432 60.344 464.752 59.864C469.104 59.384 474.256 59.448 480.208 60.056L480.4 68.168C476.496 67.56 473.088 67.288 470.176 67.352C467.264 67.416 464.848 67.752 462.928 68.36C461.04 68.968 459.616 69.8 458.656 70.856C457.728 71.912 457.264 73.144 457.264 74.552C457.264 76.664 458.032 78.296 459.568 79.448C461.104 80.568 463.2 81.128 465.856 81.128C468.128 81.128 470.16 80.712 471.952 79.88C473.776 79.048 475.216 77.88 476.272 76.376C477.328 74.84 477.856 73.032 477.856 70.952V58.808C477.856 56.792 477.424 55.048 476.56 53.576C475.728 52.072 474.448 50.92 472.72 50.12C470.992 49.288 468.768 48.872 466.048 48.872C463.552 48.872 461.072 49.256 458.608 50.024C456.176 50.76 453.888 51.912 451.744 53.48L448.432 44.696C451.472 42.68 454.672 41.24 458.032 40.376C461.392 39.512 464.64 39.08 467.776 39.08C472.256 39.08 476.128 39.784 479.392 41.192C482.688 42.6 485.216 44.76 486.976 47.672C488.768 50.552 489.664 54.216 489.664 58.664V89H478.816V83.528C477.216 85.736 475.008 87.448 472.192 88.664C469.376 89.848 466.208 90.44 462.688 90.44ZM501.33 89V19.88H513.618V89H501.33Z" fill="#F1FFC7"/>
</svg>
