<svg width="608" height="110" viewBox="0 0 608 110" fill="none" xmlns="http://www.w3.org/2000/svg">
<path fill-rule="evenodd" clip-rule="evenodd" d="M55 110C85.3758 110 110 85.3753 110 55C110 24.6247 85.3758 0 55 0C24.6242 0 0 24.6247 0 55C0 85.3753 24.6242 110 55 110ZM61.6736 42.8703L54.671 18.3333L47.6682 42.8703L22.9167 36.6667L40.6654 55L22.9167 73.3333L47.6682 67.1297L54.671 91.6667L61.6736 67.1297L86.4252 73.3333L68.6764 55L86.4252 36.6667L61.6736 42.8703Z" fill="#BEFE05"/>
<path d="M134.879 82V14.8H158.927C165.487 14.8 170.767 16.24 174.767 19.12C178.799 21.968 180.815 26.192 180.815 31.792C180.815 33.872 180.335 35.84 179.375 37.696C178.415 39.552 177.167 41.184 175.631 42.592C174.095 43.968 172.463 45.024 170.735 45.76C174.383 46.912 177.391 48.976 179.759 51.952C182.127 54.928 183.311 58.56 183.311 62.848C183.311 66.624 182.351 69.952 180.431 72.832C178.543 75.712 175.839 77.968 172.319 79.6C168.799 81.2 164.639 82 159.839 82H134.879ZM147.359 72.448H157.871C162.063 72.448 165.199 71.616 167.279 69.952C169.359 68.256 170.399 65.728 170.399 62.368C170.399 59.072 169.359 56.544 167.279 54.784C165.231 53.024 162.111 52.144 157.919 52.144H147.359V72.448ZM147.359 43.12H157.103C159.439 43.12 161.471 42.736 163.199 41.968C164.927 41.2 166.271 40.096 167.231 38.656C168.191 37.184 168.671 35.44 168.671 33.424C168.671 30.48 167.647 28.24 165.599 26.704C163.583 25.136 160.687 24.352 156.911 24.352H147.359V43.12ZM206.505 83.44C203.241 83.44 200.345 82.816 197.817 81.568C195.289 80.32 193.305 78.56 191.865 76.288C190.425 73.984 189.705 71.264 189.705 68.128C189.705 65.44 190.377 63.04 191.721 60.928C193.065 58.816 195.129 57.072 197.913 55.696C200.697 54.288 204.249 53.344 208.569 52.864C212.921 52.384 218.073 52.448 224.025 53.056L224.217 61.168C220.313 60.56 216.905 60.288 213.993 60.352C211.081 60.416 208.665 60.752 206.745 61.36C204.857 61.968 203.433 62.8 202.473 63.856C201.545 64.912 201.081 66.144 201.081 67.552C201.081 69.664 201.849 71.296 203.385 72.448C204.921 73.568 207.017 74.128 209.673 74.128C211.945 74.128 213.977 73.712 215.769 72.88C217.593 72.048 219.033 70.88 220.089 69.376C221.145 67.84 221.673 66.032 221.673 63.952V51.808C221.673 49.792 221.241 48.048 220.377 46.576C219.545 45.072 218.265 43.92 216.537 43.12C214.809 42.288 212.585 41.872 209.865 41.872C207.369 41.872 204.889 42.256 202.425 43.024C199.993 43.76 197.705 44.912 195.561 46.48L192.249 37.696C195.289 35.68 198.489 34.24 201.849 33.376C205.209 32.512 208.457 32.08 211.593 32.08C216.073 32.08 219.945 32.784 223.209 34.192C226.505 35.6 229.033 37.76 230.793 40.672C232.585 43.552 233.481 47.216 233.481 51.664V82H222.633V76.528C221.033 78.736 218.825 80.448 216.009 81.664C213.193 82.848 210.025 83.44 206.505 83.44ZM245.147 82V34H257.435V39.76C259.355 37.232 261.595 35.408 264.155 34.288C266.747 33.136 269.451 32.56 272.267 32.56C276.683 32.56 280.331 33.44 283.211 35.2C286.123 36.96 288.283 39.216 289.691 41.968C291.099 44.72 291.803 47.6 291.803 50.608V82H279.515V54.448C279.515 51.184 278.571 48.592 276.683 46.672C274.795 44.752 272.155 43.792 268.763 43.792C266.555 43.792 264.587 44.288 262.859 45.28C261.163 46.24 259.835 47.6 258.875 49.36C257.915 51.12 257.435 53.152 257.435 55.456V82H245.147ZM303.602 82V12.88H315.89V52.288L333.266 34H347.666L330.77 52.72L349.826 82H335.186L321.842 60.736L315.89 66.832V82H303.602ZM388.873 83.44C381.897 83.44 375.785 82 370.537 79.12C365.289 76.24 361.209 72.192 358.297 66.976C355.385 61.728 353.929 55.568 353.929 48.496C353.929 43.344 354.777 38.64 356.473 34.384C358.201 30.096 360.633 26.384 363.769 23.248C366.937 20.08 370.649 17.648 374.905 15.952C379.193 14.224 383.897 13.36 389.017 13.36C394.297 13.36 398.809 14.032 402.553 15.376C406.297 16.688 409.625 18.56 412.537 20.992L406.153 31.216C404.105 29.264 401.705 27.824 398.953 26.896C396.233 25.936 393.209 25.456 389.881 25.456C386.329 25.456 383.145 25.984 380.329 27.04C377.513 28.096 375.113 29.632 373.129 31.648C371.145 33.632 369.625 36.032 368.569 38.848C367.513 41.664 366.985 44.832 366.985 48.352C366.985 53.184 367.929 57.312 369.817 60.736C371.705 64.128 374.393 66.736 377.881 68.56C381.369 70.384 385.513 71.296 390.313 71.296C393.545 71.296 396.697 70.8 399.769 69.808C402.873 68.816 405.801 67.232 408.553 65.056L414.313 75.568C411.113 78.064 407.401 80 403.177 81.376C398.985 82.752 394.217 83.44 388.873 83.44ZM421.825 82V34H434.113V40.288C435.777 37.472 437.857 35.472 440.353 34.288C442.881 33.104 445.601 32.512 448.513 32.512C449.537 32.512 450.481 32.56 451.345 32.656C452.209 32.752 453.041 32.896 453.841 33.088L452.305 45.76C451.313 45.408 450.273 45.152 449.185 44.992C448.129 44.8 447.073 44.704 446.017 44.704C442.561 44.704 439.713 45.744 437.473 47.824C435.233 49.872 434.113 52.752 434.113 56.464V82H421.825ZM466.947 103.504C465.059 103.504 463.203 103.296 461.379 102.88C459.555 102.464 457.795 101.792 456.099 100.864L458.835 90.448C459.827 91.056 460.931 91.52 462.147 91.84C463.363 92.16 464.467 92.32 465.459 92.32C467.507 92.32 469.171 91.84 470.451 90.88C471.731 89.952 472.707 88.464 473.379 86.416L474.675 82.576L455.859 34H469.251L481.635 69.76L493.683 34H506.691L486.243 88.192C484.707 92.096 482.963 95.152 481.011 97.36C479.059 99.6 476.899 101.184 474.531 102.112C472.195 103.04 469.667 103.504 466.947 103.504ZM512.578 102.16V34H523.426V40.336C525.282 38 527.666 36.128 530.578 34.72C533.49 33.28 537.01 32.56 541.138 32.56C545.778 32.56 549.906 33.648 553.522 35.824C557.138 38 559.97 41.008 562.018 44.848C564.098 48.656 565.138 53.04 565.138 58C565.138 61.552 564.546 64.864 563.362 67.936C562.178 71.008 560.514 73.712 558.37 76.048C556.226 78.352 553.666 80.16 550.69 81.472C547.746 82.784 544.498 83.44 540.946 83.44C537.49 83.44 534.418 82.848 531.73 81.664C529.074 80.448 526.77 78.8 524.818 76.72V102.16H512.578ZM538.882 72.688C541.602 72.688 544.018 72.096 546.13 70.912C548.242 69.696 549.906 68 551.122 65.824C552.338 63.616 552.946 61.008 552.946 58C552.946 54.992 552.338 52.384 551.122 50.176C549.906 47.968 548.226 46.272 546.082 45.088C543.97 43.904 541.57 43.312 538.882 43.312C536.162 43.312 533.746 43.904 531.634 45.088C529.522 46.272 527.858 47.968 526.642 50.176C525.426 52.384 524.818 54.992 524.818 58C524.818 61.008 525.41 63.616 526.594 65.824C527.81 68 529.474 69.696 531.586 70.912C533.73 72.096 536.162 72.688 538.882 72.688ZM593.404 83.44C588.476 83.44 584.572 82.032 581.692 79.216C578.812 76.4 577.372 72.144 577.372 66.448V20.08H589.66V34H602.284V43.984H589.66V64C589.66 67.072 590.268 69.248 591.484 70.528C592.7 71.776 594.38 72.4 596.524 72.4C597.612 72.4 598.636 72.272 599.596 72.016C600.588 71.76 601.5 71.424 602.332 71.008L604.252 80.8C602.844 81.536 601.196 82.16 599.308 82.672C597.42 83.184 595.452 83.44 593.404 83.44ZM567.244 43.984V34H578.764V43.984H567.244Z" fill="#F1FFC7"/>
</svg>
