<svg width="100" height="95" viewBox="0 0 100 95" fill="none" xmlns="http://www.w3.org/2000/svg">
<path d="M98.3333 85V78.3333H95V75C95 73.1617 93.505 71.6667 91.6667 71.6667V45C93.505 45 95 43.505 95 41.6667V38.3333H99.3633L94.3633 28.3333H82.9017L79.5283 18.3333H77.3833C76.2117 8.08333 64.3883 0 50 0C35.5017 0 23.5883 8.08333 22.4083 18.3333H20.47L17.0967 28.3333H5.63667L0.636667 38.3333H5V41.6667C5 43.505 6.495 45 8.33333 45V71.6667C6.495 71.6667 5 73.1617 5 75V78.3333H1.66667V85H0V95H100V85H98.3333ZM91.6667 41.6667C89.8283 41.6667 88.3333 43.1617 88.3333 45V71.6667C88.3333 73.505 89.8283 75 91.6667 75V78.3333H81.6667V75C83.505 75 85 73.505 85 71.6667V45C85 43.1617 83.505 41.6667 81.6667 41.6667V38.3333H91.6667V41.6667ZM18.3333 71.6667V45C20.1717 45 21.6667 43.505 21.6667 41.6667V38.3333H23.3333V41.6667C23.3333 43.505 24.8283 45 26.6667 45V71.6667C24.8283 71.6667 23.3333 73.1617 23.3333 75V78.3333H21.6667V75C21.6667 73.1617 20.1717 71.6667 18.3333 71.6667ZM26.6667 75C28.505 75 30 73.505 30 71.6667V45C30 43.1617 28.505 41.6667 26.6667 41.6667V38.3333H36.6667V41.6667C34.8283 41.6667 33.3333 43.1617 33.3333 45V71.6667C33.3333 73.505 34.8283 75 36.6667 75V78.3333H26.6667V75ZM36.6667 71.6667V45C38.505 45 40 43.505 40 41.6667V38.3333H41.6667V41.6667C41.6667 43.505 43.1617 45 45 45V71.6667C43.1617 71.6667 41.6667 73.1617 41.6667 75V78.3333H40V75C40 73.1617 38.505 71.6667 36.6667 71.6667ZM45 75C46.8383 75 48.3333 73.505 48.3333 71.6667V45C48.3333 43.1617 46.8383 41.6667 45 41.6667V38.3333H55V41.6667C53.1617 41.6667 51.6667 43.1617 51.6667 45V71.6667C51.6667 73.505 53.1617 75 55 75V78.3333H45V75ZM55 71.6667V45C56.8383 45 58.3333 43.505 58.3333 41.6667V38.3333H60V41.6667C60 43.505 61.495 45 63.3333 45V71.6667C61.495 71.6667 60 73.1617 60 75V78.3333H58.3333V75C58.3333 73.1617 56.8383 71.6667 55 71.6667ZM63.3333 75C65.1717 75 66.6667 73.505 66.6667 71.6667V45C66.6667 43.1617 65.1717 41.6667 63.3333 41.6667V38.3333H73.3333V41.6667C71.495 41.6667 70 43.1617 70 45V71.6667C70 73.505 71.495 75 73.3333 75V78.3333H63.3333V75ZM73.3333 71.6667V45C75.1717 45 76.6667 43.505 76.6667 41.6667V38.3333H78.3333V41.6667C78.3333 43.505 79.8283 45 81.6667 45V71.6667C79.8283 71.6667 78.3333 73.1617 78.3333 75V78.3333H76.6667V75C76.6667 73.1617 75.1717 71.6667 73.3333 71.6667ZM26.1233 23.5633L21.2767 26.37L22.8617 21.6667H29.4L26.1233 23.5633ZM28.8417 25.8433L50 13.5917L75.46 28.3333H24.54L28.8417 25.8433ZM78.7217 26.37L73.875 23.5633L70.5983 21.6667H77.1367L78.7217 26.37ZM50 3.33333C62.51 3.33333 72.83 9.92333 74.0467 18.3333H64.8433L50 9.74167L35.1583 18.3333H25.7517C27.02 10.045 37.6083 3.33333 50 3.33333ZM7.69667 31.6667H12.1283H18.06L18.425 31.8733L18.7833 31.6667H81.2783L81.6583 31.8617L81.9783 31.6667H87.8733H92.305L93.9717 35H78.3333H76.6667H60H58.3333H41.6667H40H23.3333H21.6667H6.03L7.69667 31.6667ZM8.33333 75C10.1717 75 11.6667 73.505 11.6667 71.6667V45C11.6667 43.1617 10.1717 41.6667 8.33333 41.6667V38.3333H18.3333V41.6667C16.495 41.6667 15 43.1617 15 45V71.6667C15 73.505 16.495 75 18.3333 75V78.3333H8.33333V75ZM5 81.6667H21.6667H23.3333H40H41.6667H58.3333H60H76.6667H78.3333H95V85H5V81.6667ZM96.6667 91.6667H3.33333V88.3333H96.6667V91.6667Z" fill="#F1FFC7"/>
</svg>
