<svg width="90" height="83" viewBox="0 0 90 83" fill="none" xmlns="http://www.w3.org/2000/svg">
<path d="M62.5271 37.3718C62.1994 37.0801 61.7249 36.981 61.3081 37.1191L59.6986 37.6511C56.0145 32.5924 50.3204 29.6973 44.0337 29.6973C37.8033 29.6973 31.9141 32.717 28.2803 37.7755C28.0827 38.0508 28.0054 38.3999 28.0683 38.7329C28.1314 39.0665 28.331 39.3632 28.6153 39.5471L31.6452 41.5068C31.8473 41.6379 32.0812 41.7069 32.3212 41.7069C32.7155 41.7069 33.0904 41.5176 33.3238 41.2002C35.8571 37.7622 39.7608 35.7902 44.0337 35.7902C47.5859 35.7902 50.995 37.2125 53.4711 39.7102L52.5018 40.0306C52.0809 40.1696 51.7636 40.526 51.6738 40.96C51.5836 41.3944 51.7337 41.8471 52.0646 42.1423L58.9881 48.3116C59.2162 48.5152 59.5106 48.6272 59.8163 48.6272C59.9503 48.6272 60.082 48.6058 60.2066 48.5648C60.628 48.4257 60.9453 48.0695 61.0351 47.6349L62.917 38.5536C63.0075 38.1199 62.8578 37.6669 62.5271 37.3718Z" fill="#F1FFC7"/>
<path d="M61.384 55.9825L58.3537 54.0221C58.1515 53.8917 57.9181 53.8222 57.6783 53.8222C57.2839 53.8222 56.9087 54.0118 56.6753 54.3291C54.1416 57.7672 50.2381 59.7394 45.9654 59.7394C42.4132 59.7394 39.0045 58.3171 36.5282 55.8194L37.4973 55.499C37.9182 55.3597 38.2355 55.0033 38.3255 54.5689C38.4155 54.1348 38.2656 53.6825 37.9347 53.3873L31.011 47.218C30.6831 46.9258 30.2012 46.8288 29.7922 46.9648C29.3711 47.1037 29.0538 47.4598 28.9636 47.8947L27.0814 56.9755C26.9914 57.4097 27.1413 57.8622 27.4722 58.1573C27.7997 58.449 28.2742 58.5481 28.6914 58.4102L30.3008 57.8785C33.9844 62.9372 39.679 65.8323 45.9654 65.8323C52.1958 65.8323 58.085 62.8124 61.7188 57.7541C61.9164 57.479 61.9935 57.1297 61.9308 56.7965C61.8684 56.4631 61.6681 56.1664 61.384 55.9825Z" fill="#F1FFC7"/>
<path d="M84.5916 0.539062H5.40841C2.4263 0.539062 0 2.96537 0 5.9477V76.8909C0 79.8732 2.4263 82.2993 5.40841 82.2993H84.5916C87.5739 82.2993 90 79.8732 90 76.8909V5.94793C90 2.9656 87.5735 0.539062 84.5916 0.539062ZM68.2847 9.62124C68.2847 8.51835 69.1787 7.62429 70.2814 7.62429H72.2785C73.3819 7.62429 74.2757 8.51835 74.2757 9.62124V11.8846C74.2757 12.9875 73.3817 13.8816 72.2785 13.8816H70.2814C69.1787 13.8816 68.2847 12.9875 68.2847 11.8846V9.62124ZM58.9982 9.62124C58.9982 8.51835 59.8928 7.62429 60.9954 7.62429H62.9921C64.0952 7.62429 64.9893 8.51835 64.9893 9.62124V11.8846C64.9893 12.9875 64.0952 13.8816 62.9921 13.8816H60.9954C59.8928 13.8816 58.9982 12.9875 58.9982 11.8846V9.62124ZM83.5096 75.8089H6.49019V19.8807H83.5091V75.8089H83.5096ZM83.5617 11.8846C83.5617 12.9875 82.6676 13.8816 81.565 13.8816H79.5678C78.4647 13.8816 77.5708 12.9875 77.5708 11.8846V9.62124C77.5708 8.51835 78.4649 7.62429 79.5678 7.62429H81.565C82.6678 7.62429 83.5617 8.51835 83.5617 9.62124V11.8846Z" fill="#F1FFC7"/>
</svg>
