<svg width="100" height="115" viewBox="0 0 100 115" fill="none" xmlns="http://www.w3.org/2000/svg">
<path d="M81.6035 60.7775C81.6095 60.7735 81.6154 60.7697 81.6212 60.7657L81.6466 60.748L81.6035 60.7775Z" fill="#F1FFC7"/>
<path d="M97.0875 61.267V61.269C96.1429 60.238 94.9905 59.4401 93.7086 58.9035C92.4266 58.3684 91.0155 58.0938 89.5495 58.0938C88.158 58.0959 86.7507 58.3429 85.4022 58.7976C84.0597 59.2543 82.7739 59.9167 81.6215 60.7655L81.5257 60.8361L81.4944 60.8555L81.3847 60.9496C81.2591 61.0555 81.0201 61.2395 80.7066 61.467C79.609 62.2804 77.5786 63.6817 75.1717 65.3165C73.5919 66.3866 71.8437 67.5587 70.0758 68.7385C70.0798 68.6523 70.0836 68.5658 70.0836 68.4798C70.0836 65.6085 68.9116 62.9918 67.0261 61.1084C65.1405 59.2248 62.5299 58.0527 59.6567 58.0527H37.5758C33.9459 58.0527 30.8297 58.4232 28.1291 59.0661C24.072 60.0264 20.94 61.6062 18.4118 63.3897C15.8834 65.1753 13.9627 67.1507 12.2575 68.8911C11.9048 69.2517 11.5596 69.6085 11.2108 69.9535L2.5713 77.5032C0.940585 78.9301 0 80.9938 0 83.1654V108.613C0 110.877 1.32486 112.931 3.37896 113.868V113.866C4.13165 114.209 4.95092 114.389 5.778 114.387C7.16944 114.385 8.51419 113.888 9.54481 112.984L25.6438 99.1842L50.9741 103.786C51.6756 103.916 52.3852 103.978 53.0908 103.978C55.5524 103.978 57.9317 103.226 59.9271 101.814L59.9193 101.82C61.6516 100.615 70.1265 94.7212 78.4876 88.859C82.67 85.9309 86.8173 83.0106 90.0906 80.69C91.7213 79.526 93.1362 78.5166 94.222 77.7248C94.7669 77.3309 95.2294 76.992 95.6018 76.7136C95.9743 76.4352 96.2486 76.2217 96.4448 76.059V76.061L96.5114 76.0063L96.5386 75.9826L96.6248 75.9024C97.6834 74.9323 98.5143 73.7956 99.0945 72.5527C99.6669 71.3083 99.9841 69.9579 100 68.5741C100 68.533 100 68.4899 100 68.4485C100 65.8339 98.9455 63.2896 97.0875 61.267ZM93.3046 72.2897C90.8194 74.3593 57.1203 97.7923 57.1203 97.7923C55.5877 98.8723 53.6944 99.2955 51.8521 98.9624L25.4519 94.1625C24.6797 94.0235 23.8799 94.2369 23.2843 94.7447L6.34258 109.27C6.08788 109.495 5.72327 109.544 5.41361 109.403C5.10418 109.262 4.904 108.952 4.904 108.613V83.1654C4.904 82.4069 5.22952 81.6936 5.80169 81.1978L14.5666 73.5402C19.3997 68.709 23.7704 62.9587 37.576 62.9587C51.378 62.9587 56.8931 62.9587 59.6567 62.9587C62.7064 62.9587 65.1798 65.4302 65.1798 68.4798C65.1798 71.5274 62.7064 73.9991 59.6567 73.9991C59.6567 73.9991 48.1559 73.9991 44.4711 73.9991L44.5377 74.0342C43.4557 73.9991 42.5464 74.8496 42.5033 75.9332C42.472 77.019 43.3265 77.9286 44.4083 77.9636L44.4711 77.9324H65.0817C65.0817 77.9324 82.0391 66.7883 84.5203 64.7204C87.2328 62.7114 91.2939 62.2078 93.4733 64.5814C95.6528 66.9548 95.6764 70.1123 93.3046 72.2897Z" fill="#F1FFC7"/>
<path d="M41.1467 45.6485C45.6468 48.7296 51.3071 50.9875 51.3071 50.9875C51.8285 51.1559 52.6319 51.305 52.9103 51.305C53.1885 51.305 53.9921 51.1559 54.5173 50.9875C54.5173 50.9875 60.1738 48.7296 64.6777 45.6485C71.5296 40.978 82.6426 31.8074 82.6426 18.8856C82.6426 5.77375 75.2263 -0.166903 67.0691 0.00356358C60.8481 0.119293 57.1713 3.79405 54.7057 7.4181C54.2548 8.08835 53.5806 8.51954 52.9105 8.5392C52.2403 8.51954 51.5698 8.08835 51.1192 7.4181C48.6495 3.79405 44.9768 0.119293 38.7557 0.00356358C30.5948 -0.166903 23.1782 5.77352 23.1782 18.8856C23.178 31.8074 34.295 40.978 41.1467 45.6485ZM35.028 8.20988C35.6552 7.44535 36.4353 6.79275 37.329 6.25186C38.2148 5.71678 39.3634 5.99895 39.8965 6.88301C40.4296 7.76484 40.1474 8.91543 39.2653 9.4465C38.6775 9.80128 38.2461 10.1775 37.9248 10.5716C37.274 11.3712 36.0982 11.4908 35.2946 10.8399C34.4985 10.1894 34.3772 9.01351 35.028 8.20988ZM30.6495 20.1086C30.6495 18.8642 30.7789 17.7058 31.0572 16.6376C31.32 15.6398 32.339 15.0422 33.3348 15.3029C34.3343 15.5636 34.9299 16.5849 34.6715 17.5822C34.4909 18.2739 34.3853 19.1187 34.3853 20.1086C34.3853 21.0983 34.4871 22.2253 34.7027 23.4934C35.0437 25.524 35.9061 27.4094 37.1684 29.1791C37.772 30.0201 37.5759 31.1861 36.7331 31.7839C35.8942 32.3856 34.7302 32.1876 34.1265 31.3509C32.6057 29.2144 31.4728 26.7941 31.0181 24.1147C30.7786 22.6819 30.6495 21.3492 30.6495 20.1086Z" fill="#F1FFC7"/>
</svg>
